<svg width="18" height="18" viewBox="0 0 18 18" fill="none" xmlns="http://www.w3.org/2000/svg">
<path d="M11.9999 14C13.1044 14 13.9999 13.1046 13.9999 12C13.9999 10.8954 13.1044 10 11.9999 10C10.8953 10 9.99988 10.8954 9.99988 12C9.99988 13.1046 10.8953 14 11.9999 14Z" fill="black" fill-opacity="0.48"/>
<path fill-rule="evenodd" clip-rule="evenodd" d="M2.99988 0C1.34302 0 -0.00012207 1.34315 -0.00012207 3V15C-0.00012207 16.6569 1.34302 18 2.99988 18H14.9999C16.6567 18 17.9999 16.6569 17.9999 15V3C17.9999 1.34315 16.6567 0 14.9999 0H2.99988ZM1.99988 15V4H15.9999V15C15.9999 15.5523 15.5522 16 14.9999 16H2.99988C2.44759 16 1.99988 15.5523 1.99988 15Z" fill="black" fill-opacity="0.48"/>
</svg>
